<?xml version="1.0" encoding="UTF-8" standalone="no"?>
<!-- Created with Inkscape (http://www.inkscape.org/) -->

<svg
   xmlns:dc="http://purl.org/dc/elements/1.1/"
   xmlns:cc="http://creativecommons.org/ns#"
   xmlns:rdf="http://www.w3.org/1999/02/22-rdf-syntax-ns#"
   xmlns:svg="http://www.w3.org/2000/svg"
   xmlns="http://www.w3.org/2000/svg"
   xmlns:sodipodi="http://sodipodi.sourceforge.net/DTD/sodipodi-0.dtd"
   xmlns:inkscape="http://www.inkscape.org/namespaces/inkscape"
   version="1.1"
   id="svg3718"
   xml:space="preserve"
   width="576"
   height="110.01724"
   viewBox="0 0 576 110.01724"
   sodipodi:docname="sundials_logo_blue_horiz.svg"
   inkscape:version="0.92.2 5c3e80d, 2017-08-06"
   inkscape:export-filename="/Users/gardner48/Desktop/sundials_logo_blue_horiz.png"
   inkscape:export-xdpi="300"
   inkscape:export-ydpi="300"><metadata
     id="metadata3724"><rdf:RDF><cc:Work
         rdf:about=""><dc:format>image/svg+xml</dc:format><dc:type
           rdf:resource="http://purl.org/dc/dcmitype/StillImage" /><dc:title></dc:title></cc:Work></rdf:RDF></metadata><defs
     id="defs3722" /><sodipodi:namedview
     pagecolor="#ffffff"
     bordercolor="#666666"
     borderopacity="1"
     objecttolerance="10"
     gridtolerance="10"
     guidetolerance="10"
     inkscape:pageopacity="0"
     inkscape:pageshadow="2"
     inkscape:window-width="2310"
     inkscape:window-height="1280"
     id="namedview3720"
     showgrid="false"
     inkscape:zoom="2"
     inkscape:cx="174.64914"
     inkscape:cy="14.296382"
     inkscape:window-x="0"
     inkscape:window-y="0"
     inkscape:window-maximized="0"
     inkscape:current-layer="g3728"
     showguides="true"
     inkscape:guide-bbox="true" /><g
     id="g3726"
     inkscape:groupmode="layer"
     inkscape:label="ink_ext_XXXXXX"
     transform="matrix(1.3333333,0,0,-1.3333333,-1.65803,263.36932)"><g
       id="g3728"
       transform="matrix(0.1,0,0,0.1,-1.3447615,0.12225105)"><g
         id="g646"
         transform="matrix(0.67817493,0,0,0.67817493,-108.60805,1189.6093)"><path
           inkscape:connector-curvature="0"
           id="path3730"
           style="fill:#9ebfcc;fill-opacity:1;fill-rule:nonzero;stroke:none"
           d="m 804.121,1156.69 c 1.324,0 2.656,-0.18 3.981,-0.19 h 602.468 v -607.238 -0.953 c 0.06,-78.696 -15.06,-158.614 -47.35,-235.672 C 1233.56,3.1562996 878.051,-142.4844 569.648,-12.367201 261.25,117.754 116.117,474.504 245.781,783.984 l 0.946,2.469 c 97.984,231.037 321.859,369.987 557.394,370.237" /><path
           inkscape:connector-curvature="0"
           id="path3732"
           style="fill:#80b2cf;fill-opacity:1;fill-rule:nonzero;stroke:none"
           d="M 1282.81,748.488 C 1393.83,485.703 1269.62,182.758 1005.57,72.273 741.508,-38.210901 437.098,85.395 326.078,348.18 c -111.019,262.785 13.184,565.73 277.242,676.21 263.321,110.18 566.74,-12.25 678.6,-273.824" /><path
           inkscape:connector-curvature="0"
           id="path3734"
           style="fill:#9ebfcc;fill-opacity:1;fill-rule:nonzero;stroke:none"
           d="M 1273.27,306.203 856.336,450.844 724.852,28.2773 733.09,470.887 291.98,465.793 714.004,594.703 572.867,1014.12 825.453,651.184 1179.34,915.488 913.418,562.273 1273.27,306.203" /></g><g
         id="g641"
         transform="matrix(3.6598351,0,0,3.6598351,170.17113,-3243.3926)"><path
           sodipodi:nodetypes="cccccccccccccc"
           inkscape:connector-curvature="0"
           id="path3738"
           style="fill:#4d4d4d;fill-opacity:1;fill-rule:nonzero;stroke:none"
           d="m 412.3489,1216.5 0.012,11.2559 c -4.46668,-3.7899 -10.6198,-7.0329 -18.45552,-9.7239 -7.83591,-2.6945 -15.0433,-4.0406 -21.61631,-4.0412 -31.42558,0.01 -47.13619,16.6941 -47.12887,50.062 l 0.0231,87.8401 31.59903,-0.01 -0.0241,-85.4383 c -0.003,-17.3554 7.78735,-26.0371 23.37741,-26.0397 7.16213,9e-4 13.81735,1.8475 19.96951,5.5536 6.15213,3.706 10.23982,8.0049 12.26352,12.8915 l -0.0197,92.9469 H 443.9441 V 1216.5" /><path
           sodipodi:nodetypes="ccccccccccccccc"
           inkscape:connector-curvature="0"
           id="path3740"
           style="fill:#4d4d4d;fill-opacity:1;fill-rule:nonzero;stroke:none"
           d="m 553.93585,1216.5 -0.0553,78.2686 c -0.006,11.5404 -2.22045,19.97 -6.65509,25.2731 -4.4245,5.3044 -11.64584,7.9582 -21.68004,7.9474 -4.63024,0 -9.58303,-1.3141 -14.84191,-3.9263 -5.26688,-2.6187 -9.36999,-5.8604 -12.32138,-9.7462 l 0.0727,-97.818 h -31.69749 v 135.2969 h 22.75519 l 5.81383,-12.5809 c 8.59423,10.1196 21.27387,15.1838 38.03603,15.1957 16.09811,0 28.80401,-4.8032 38.12163,-14.4442 9.31701,-9.6404 13.97743,-23.0993 13.99365,-40.3721 l 0.0533,-83.094" /><path
           inkscape:connector-curvature="0"
           id="path3742"
           style="fill:#4d4d4d;fill-opacity:1;fill-rule:nonzero;stroke:none"
           d="m 701.74537,1216.5016 0.002,8.214 c -2.61394,-2.8627 -7.03473,-5.3723 -13.27303,-7.5231 -6.23476,-2.1527 -12.67769,-3.2208 -19.33796,-3.2225 -18.87159,10e-5 -33.72202,5.9838 -44.5486,17.9512 -10.83115,11.9584 -16.24411,28.6458 -16.24359,50.0421 6.3e-4,21.4074 6.2161,38.8307 18.64635,52.2698 12.42215,13.432 27.99487,20.1582 46.69737,20.1554 10.27751,6e-4 19.63028,-2.108 28.0602,-6.3175 l -0.002,54.2225 31.5951,7.5805 -0.001,-193.377 z m 9.3e-4,103.0039 c -6.74444,5.3906 -13.77729,8.0861 -21.10656,8.0904 -12.63983,0 -22.37217,-3.8582 -29.19787,-11.5628 -6.82584,-7.7156 -10.23626,-18.7668 -10.23876,-33.1833 10e-4,-28.1398 13.56951,-42.2095 40.70247,-42.2081 3.03134,0 6.75973,0.9057 11.18241,2.7176 4.42268,1.8119 7.3079,3.6364 8.65588,5.4963 l 0.002,70.6499" /><g
           transform="rotate(-6.2774089,312.51767,501.60307)"
           id="g6208"><path
             d="m 687.89485,1451.0461 c 5.02782,0.5501 9.51752,-0.7598 13.4671,-3.9197 3.95358,-3.17 6.20387,-7.2699 6.75887,-12.2899 0.554,-5.03 -0.75429,-9.5101 -3.92287,-13.4701 -3.16858,-3.9501 -7.26728,-6.2002 -12.2911,-6.7603 -5.02482,-0.5501 -9.51352,0.7599 -13.46711,3.9298 -3.94958,3.1599 -6.20387,7.2599 -6.75887,12.2899 -0.551,5.02 0.75429,9.51 3.92287,13.4601 3.16858,3.9501 7.26729,6.2101 12.29111,6.7602 v 0"
             style="fill:#d64d4d;fill-opacity:1;fill-rule:nonzero;stroke:none;stroke-width:1.00008166"
             id="path3744"
             inkscape:connector-curvature="0" /><path
             sodipodi:nodetypes="ccccccc"
             d="m 692.547,1262.61 -11.973,108.8 -17.215,-1.9 -2.8202,25.6983 48.99104,5.3891 14.80216,-134.4874 -31.785,-3.5"
             style="fill:#4d4d4d;fill-opacity:1;fill-rule:nonzero;stroke:none"
             id="path3746"
             inkscape:connector-curvature="0" /></g><path
           inkscape:connector-curvature="0"
           id="path3748"
           style="fill:#4d4d4d;fill-opacity:1;fill-rule:nonzero;stroke:none"
           d="m 914.69042,1229.9076 c -2.879,-4.7 -7.883,-8.54 -15.012,-11.51 -7.133,-2.97 -14.57,-4.44 -22.324,-4.41 -14.575,0.05 -26.024,3.73 -34.34,11.04 -8.321,7.32 -12.457,17.67 -12.41,31.07 0.05,15.67 5.968,27.92 17.75,36.72 11.781,8.81 28.5,13.18 50.156,13.11 3.707,-0.01 8.086,-0.66 13.137,-1.94 0.054,15.92 -9.989,23.92 -30.125,23.99 -11.883,0.04 -21.832,-1.91 -29.848,-5.85 l -6.746,24.55 c 10.887,5.18 23.828,7.75 38.828,7.7 20.641,-0.06 35.75,-4.81 45.324,-14.23 9.578,-9.43 14.321,-27.25 14.235,-53.45 l -0.094,-28.95 c -0.059,-18.03 3.527,-29.37 10.758,-34.03 -2.629,-4.54 -5.543,-7.33 -8.75,-8.38 -3.203,-1.04 -6.871,-1.55 -11,-1.54 -4.551,0.02 -8.629,1.72 -12.243,5.1 -3.613,3.38 -6.043,7.05 -7.296,11.01 z m -2.868,50.19 c -5.39,1.12 -9.429,1.68 -12.129,1.69 -24.937,0.08 -37.437,-8.06 -37.488,-24.4 -0.043,-12.14 6.973,-18.23 21.047,-18.27 18.957,-0.06 28.469,9.38 28.527,28.35 l 0.043,12.63" /><path
           inkscape:transform-center-y="13.060613"
           inkscape:transform-center-x="1.1153051"
           inkscape:connector-curvature="0"
           id="path3750"
           style="fill:#4d4d4d;fill-opacity:1;fill-rule:nonzero;stroke:none;stroke-width:0.99999499"
           d="m 976.81978,1402.291 31.59652,7.5783 -0.027,-152.1693 c -6e-4,-16.6799 4.9733,-26.6343 14.9132,-29.8335 -4.8909,-9.2652 -13.2266,-13.9009 -25.02674,-13.8977 -14.32008,0.01 -21.48115,9.9531 -21.48313,29.833 l 0.0259,158.4892" /><path
           inkscape:connector-curvature="0"
           id="path3752"
           style="fill:#4d4d4d;fill-opacity:1;fill-rule:nonzero;stroke:none"
           d="m 1046.316,1225.373 11.34,25.12 c 9.41,-7.53 20.05,-11.32 31.94,-11.36 12.3,-0.03 18.46,4.32 18.49,13.09 0.02,5.14 -1.82,9.36 -5.52,12.66 -3.7,3.29 -10.89,7.19 -21.57,11.7 -23.31,9.76 -34.93,23.36 -34.88,40.8 0.04,11.72 4.54,20.82 13.49,27.32 8.95,6.5 20.38,9.74 34.28,9.69 14.07,-0.05 27.29,-3.25 39.66,-9.61 l -9.18,-24.49 c -6.89,5.92 -16.49,8.9 -28.79,8.94 -11.04,0.04 -16.57,-4.33 -16.6,-13.09 -0.01,-3.45 1.79,-6.58 5.4,-9.37 3.61,-2.79 11.36,-6.55 23.22,-11.26 11.87,-4.72 20.4,-10.41 25.6,-17.08 5.21,-6.68 7.79,-14.73 7.76,-24.17 -0.04,-12.56 -4.73,-22.42 -14.06,-29.59 -9.34,-7.18 -22.01,-10.73 -38.02,-10.68 -9.01,0.03 -16.24,0.79 -21.67,2.28 -5.43,1.49 -12.39,4.52 -20.89,9.1 v 0" /><path
           d="m 207.70668,1225.3724 11.34,25.1203 c 9.41,-7.5301 20.05,-11.3202 31.94,-11.3602 12.3,-0.03 18.46,4.3201 18.49,13.0902 0.02,5.14 -1.82,9.3601 -5.52,12.6601 -3.7,3.29 -10.89,7.1901 -21.57,11.7001 -23.31,9.7601 -34.93,23.3603 -34.88,40.8004 0.04,11.7201 4.54,20.8202 13.49,27.3203 8.95,6.5001 20.38,9.7401 34.28,9.6901 14.07,-0.05 27.29,-3.25 39.66,-9.6101 l -9.18,-24.4902 c -6.89,5.92 -16.49,8.9 -28.79,8.9401 -11.04,0.04 -16.57,-4.3301 -16.6,-13.0902 -0.01,-3.45 1.79,-6.58 5.4,-9.3701 3.61,-2.79 11.36,-6.55 23.22,-11.2601 11.87,-4.72 20.4,-10.4101 25.6,-17.0802 5.21,-6.68 7.79,-14.7301 7.76,-24.1702 -0.04,-12.5601 -4.73,-22.4202 -14.06,-29.5903 -9.34,-7.1801 -22.01,-10.7301 -38.02,-10.6801 -9.01,0.03 -16.24,0.79 -21.67,2.28 -5.43,1.49 -12.39,4.5201 -20.89,9.1001 v 0"
           style="fill:#4d4d4d;fill-opacity:1;fill-rule:nonzero;stroke:none;stroke-width:1.00000501"
           id="path6210"
           inkscape:connector-curvature="0" /></g></g></g></svg>