<?xml version="1.0" encoding="UTF-8" standalone="no"?>
<!-- Created with Inkscape (http://www.inkscape.org/) -->

<svg
   xmlns:dc="http://purl.org/dc/elements/1.1/"
   xmlns:cc="http://creativecommons.org/ns#"
   xmlns:rdf="http://www.w3.org/1999/02/22-rdf-syntax-ns#"
   xmlns:svg="http://www.w3.org/2000/svg"
   xmlns="http://www.w3.org/2000/svg"
   xmlns:sodipodi="http://sodipodi.sourceforge.net/DTD/sodipodi-0.dtd"
   xmlns:inkscape="http://www.inkscape.org/namespaces/inkscape"
   version="1.1"
   id="svg732"
   xml:space="preserve"
   width="188.08"
   height="194.78667"
   viewBox="0 0 188.08 194.78667"
   sodipodi:docname="sundials_logo_blue_orig.svg"
   inkscape:version="0.92.2 5c3e80d, 2017-08-06"><metadata
     id="metadata738"><rdf:RDF><cc:Work
         rdf:about=""><dc:format>image/svg+xml</dc:format><dc:type
           rdf:resource="http://purl.org/dc/dcmitype/StillImage" /><dc:title></dc:title></cc:Work></rdf:RDF></metadata><defs
     id="defs736" /><sodipodi:namedview
     pagecolor="#ffffff"
     bordercolor="#666666"
     borderopacity="1"
     objecttolerance="10"
     gridtolerance="10"
     guidetolerance="10"
     inkscape:pageopacity="0"
     inkscape:pageshadow="2"
     inkscape:window-width="640"
     inkscape:window-height="480"
     id="namedview734"
     showgrid="false"
     inkscape:zoom="1.2115819"
     inkscape:cx="94.040001"
     inkscape:cy="97.393333"
     inkscape:window-x="717"
     inkscape:window-y="545"
     inkscape:window-maximized="0"
     inkscape:current-layer="g740" /><g
     id="g740"
     inkscape:groupmode="layer"
     inkscape:label="ink_ext_XXXXXX"
     transform="matrix(1.3333333,0,0,-1.3333333,0,194.78667)"><g
       id="g742"
       transform="scale(0.1)"><path
         d="m 804.121,1216.69 c 1.324,0 2.656,-0.18 3.981,-0.19 h 602.468 v -607.238 -0.953 c 0.06,-78.696 -15.06,-158.614 -47.35,-235.672 C 1233.56,63.1563 878.051,-82.4844 569.648,47.6328 261.25,177.754 116.117,534.504 245.781,843.984 l 0.946,2.469 c 97.984,231.037 321.859,369.987 557.394,370.237"
         style="fill:#9ebfcc;fill-opacity:1;fill-rule:nonzero;stroke:none"
         id="path744"
         inkscape:connector-curvature="0" /><path
         d="M 1282.81,808.488 C 1393.83,545.703 1269.62,242.758 1005.57,132.273 741.508,21.7891 437.098,145.395 326.078,408.18 c -111.019,262.785 13.184,565.73 277.242,676.21 263.321,110.18 566.74,-12.25 678.6,-273.824"
         style="fill:#80b2cf;fill-opacity:1;fill-rule:nonzero;stroke:none"
         id="path746"
         inkscape:connector-curvature="0" /><path
         d="M 1273.27,366.203 856.336,510.844 724.852,88.2773 733.09,530.887 291.98,525.793 714.004,654.703 572.867,1074.12 825.453,711.184 1179.34,975.488 913.418,622.273 1273.27,366.203"
         style="fill:#9ebfcc;fill-opacity:1;fill-rule:nonzero;stroke:none"
         id="path748"
         inkscape:connector-curvature="0" /><path
         d="m 141.574,487.855 -26.523,7.458 c 6.043,10.429 8.199,21.523 6.465,33.277 -1.793,12.168 -7.024,17.617 -15.692,16.34 -5.086,-0.75 -8.9842,-3.2 -11.6951,-7.348 -2.7109,-4.144 -5.4922,-11.84 -8.3516,-23.074 -6.1835,-24.504 -17.9023,-38.028 -35.1562,-40.57 -11.5859,-1.711 -21.2617,1.378 -29.0234,9.261 -7.7618,7.883 -12.6602,18.703 -14.68754,32.457 -2.05078,13.922 -0.85547,27.469 3.59374,40.645 l 25.582,-5.426 c -4.8281,-7.695 -6.3437,-17.629 -4.5507,-29.801 1.6093,-10.918 6.75,-15.742 15.4179,-14.461 3.418,0.504 6.2383,2.75 8.461,6.739 2.2226,3.992 4.7812,12.203 7.6757,24.636 2.8946,12.438 7.254,21.723 13.0743,27.864 5.8242,6.14 13.4062,9.898 22.7422,11.273 12.4177,1.828 22.8707,-1.336 31.3557,-9.496 8.484,-8.16 13.894,-20.16 16.23,-35.996 1.317,-8.922 1.641,-16.176 0.973,-21.77 -0.668,-5.59 -2.629,-12.925 -5.891,-22.008 v 0"
         style="fill:#4d4d4d;fill-opacity:1;fill-rule:nonzero;stroke:none"
         id="path750"
         inkscape:connector-curvature="0" /><path
         d="m 163.031,812.125 -11.023,2.801 c 2.574,-5.262 4.203,-12.024 4.883,-20.281 0.683,-8.258 0.214,-15.575 -1.403,-21.946 -7.742,-30.457 -27.781,-41.578 -60.1208,-33.359 l -85.1328,21.64 7.7851,30.625 82.8045,-21.05 c 16.821,-4.274 27.153,1.14 30.992,16.25 1.766,6.941 1.61,13.847 -0.468,20.722 -2.078,6.875 -5.239,11.895 -9.477,15.059 L 31.7188,845.5 39.5,876.125 170.816,842.746 163.031,812.125"
         style="fill:#4d4d4d;fill-opacity:1;fill-rule:nonzero;stroke:none"
         id="path752"
         inkscape:connector-curvature="0" /><path
         d="m 293.551,1048.85 -61.188,48.75 c -9.027,7.19 -16.996,10.72 -23.906,10.56 -6.906,-0.15 -13.484,-4.14 -19.734,-11.99 -2.887,-3.62 -4.95,-8.31 -6.188,-14.05 -1.238,-5.75 -1.262,-10.98 -0.066,-15.71 l 76.508,-60.95 -19.688,-24.718 -105.871,84.348 14.176,17.8 13.508,-3.34 c -2.551,13.03 1.398,26.1 11.843,39.21 10.032,12.59 21.719,19.52 35.067,20.79 13.347,1.27 26.773,-3.48 40.285,-14.24 l 64.945,-51.75 -19.691,-24.71"
         style="fill:#4d4d4d;fill-opacity:1;fill-rule:nonzero;stroke:none"
         id="path754"
         inkscape:connector-curvature="0" /><path
         d="m 509.746,1210.52 -3.746,7.31 c -1.02,-3.74 -3.809,-7.99 -8.379,-12.75 -4.566,-4.76 -9.812,-8.65 -15.738,-11.69 -16.793,-8.61 -32.738,-10.06 -47.832,-4.35 -15.094,5.7 -27.524,18.08 -37.285,37.12 -9.766,19.05 -12.184,37.39 -7.254,55.02 4.926,17.62 15.715,30.71 32.359,39.24 9.145,4.69 18.43,7.08 27.852,7.18 l -24.739,48.25 24.657,21.16 88.222,-172.08 z m -46.992,91.66 c -8.461,1.72 -15.949,0.91 -22.473,-2.43 -11.246,-5.77 -18.148,-13.64 -20.707,-23.61 -2.554,-9.98 -0.547,-21.37 6.028,-34.2 12.839,-25.04 31.332,-31.37 55.476,-18.99 2.699,1.38 5.602,3.89 8.711,7.52 3.109,3.63 4.844,6.57 5.195,8.84 l -32.23,62.87"
         style="fill:#4d4d4d;fill-opacity:1;fill-rule:nonzero;stroke:none"
         id="path756"
         inkscape:connector-curvature="0" /><path
         d="m 688.203,1451.08 c 5.027,0.55 9.516,-0.76 13.465,-3.92 3.953,-3.17 6.203,-7.27 6.758,-12.29 0.554,-5.03 -0.754,-9.51 -3.922,-13.47 -3.168,-3.95 -7.266,-6.2 -12.289,-6.76 -5.024,-0.55 -9.512,0.76 -13.465,3.93 -3.949,3.16 -6.203,7.26 -6.758,12.29 -0.551,5.02 0.754,9.51 3.922,13.46 3.168,3.95 7.266,6.21 12.289,6.76 v 0"
         style="fill:#d64d4d;fill-opacity:1;fill-rule:nonzero;stroke:none"
         id="path758"
         inkscape:connector-curvature="0" /><path
         d="m 692.547,1262.61 -11.973,108.8 -17.215,-1.9 -2.832,25.76 48.996,5.39 14.809,-134.55 -31.785,-3.5"
         style="fill:#4d4d4d;fill-opacity:1;fill-rule:nonzero;stroke:none"
         id="path760"
         inkscape:connector-curvature="0" /><path
         d="m 944.727,1281.64 c -2.879,-4.7 -7.883,-8.54 -15.012,-11.51 -7.133,-2.97 -14.57,-4.44 -22.324,-4.41 -14.575,0.05 -26.024,3.73 -34.34,11.04 -8.321,7.32 -12.457,17.67 -12.41,31.07 0.05,15.67 5.968,27.92 17.75,36.72 11.781,8.81 28.5,13.18 50.156,13.11 3.707,-0.01 8.086,-0.66 13.137,-1.94 0.054,15.92 -9.989,23.92 -30.125,23.99 -11.883,0.04 -21.832,-1.91 -29.848,-5.85 l -6.746,24.55 c 10.887,5.18 23.828,7.75 38.828,7.7 20.641,-0.06 35.75,-4.81 45.324,-14.23 9.578,-9.43 14.321,-27.25 14.235,-53.45 l -0.094,-28.95 c -0.059,-18.03 3.527,-29.37 10.758,-34.03 -2.629,-4.54 -5.543,-7.33 -8.75,-8.38 -3.203,-1.04 -6.871,-1.55 -11,-1.54 -4.551,0.02 -8.629,1.72 -12.243,5.1 -3.613,3.38 -6.043,7.05 -7.296,11.01 z m -2.868,50.19 c -5.39,1.12 -9.429,1.68 -12.129,1.69 -24.937,0.08 -37.437,-8.06 -37.488,-24.4 -0.043,-12.14 6.973,-18.23 21.047,-18.27 18.957,-0.06 28.469,9.38 28.527,28.35 l 0.043,12.63"
         style="fill:#4d4d4d;fill-opacity:1;fill-rule:nonzero;stroke:none"
         id="path762"
         inkscape:connector-curvature="0" /><path
         d="m 1132.49,1453.3 31.62,7.48 -0.5,-152.17 c -0.05,-16.68 4.89,-26.65 14.82,-29.88 -4.92,-9.25 -13.27,-13.86 -25.07,-13.82 -14.32,0.05 -21.45,10.02 -21.39,29.9 l 0.52,158.49"
         style="fill:#4d4d4d;fill-opacity:1;fill-rule:nonzero;stroke:none"
         id="path764"
         inkscape:connector-curvature="0" /><path
         d="m 1313.54,1275.63 11.34,25.12 c 9.41,-7.53 20.05,-11.32 31.94,-11.36 12.3,-0.03 18.46,4.32 18.49,13.09 0.02,5.14 -1.82,9.36 -5.52,12.66 -3.7,3.29 -10.89,7.19 -21.57,11.7 -23.31,9.76 -34.93,23.36 -34.88,40.8 0.04,11.72 4.54,20.82 13.49,27.32 8.95,6.5 20.38,9.74 34.28,9.69 14.07,-0.05 27.29,-3.25 39.66,-9.61 l -9.18,-24.49 c -6.89,5.92 -16.49,8.9 -28.79,8.94 -11.04,0.04 -16.57,-4.33 -16.6,-13.09 -0.01,-3.45 1.79,-6.58 5.4,-9.37 3.61,-2.79 11.36,-6.55 23.22,-11.26 11.87,-4.72 20.4,-10.41 25.6,-17.08 5.21,-6.68 7.79,-14.73 7.76,-24.17 -0.04,-12.56 -4.73,-22.42 -14.06,-29.59 -9.34,-7.18 -22.01,-10.73 -38.02,-10.68 -9.01,0.03 -16.24,0.79 -21.67,2.28 -5.43,1.49 -12.39,4.52 -20.89,9.1 v 0"
         style="fill:#4d4d4d;fill-opacity:1;fill-rule:nonzero;stroke:none"
         id="path766"
         inkscape:connector-curvature="0" /></g></g></svg>